<svg width="575" xmlns="http://www.w3.org/2000/svg" xmlns:xlink="http://www.w3.org/1999/xlink" viewBox="0 0 575 1014" height="1014">
    <style type="text/css"><![CDATA[
.st1 {fill:#000000;font-family:Arial;font-size:16pt;font-weight:bold}
]]></style>
    <defs>
        <filter id="filter1">
            <feGaussianBlur stdDeviation="2"/>
        </filter>
    </defs>
    <g transform="translate(-61,-38.65)">
        <path transform="matrix(0,1,-1,0,364.3,267)" fill="#136606" id="shape1" d="M119.5,59.7C119.5,76.2,113.6,90.3,101.9,102C90.2,113.6,76.1,119.5,59.7,119.5C43.3,119.5,29.3,113.6,17.6,102C5.9,90.3,0,76.2,0,59.7C0,43.4,5.9,29.3,17.6,17.6C29.3,5.9,43.3,0,59.7,0C76.1,0,90.2,5.9,101.9,17.6C113.6,29.3,119.5,43.4,119.5,59.7zM113.6,59.7C113.6,44.9,108.4,32.2,97.9,21.6C87.3,11.1,74.6,5.9,59.7,5.9C44.8,5.9,32.1,11.1,21.6,21.6C11.1,32.2,5.9,44.9,5.9,59.7C5.9,74.7,11.1,87.4,21.6,97.9C32.1,108.4,44.8,113.6,59.7,113.6C74.6,113.6,87.3,108.4,97.9,97.9C108.4,87.4,113.6,74.7,113.6,59.7zM101.4,59.7C101.4,71.3,97.4,81.1,89.2,89.2C81,97.4,71.2,101.4,59.7,101.4C48.3,101.4,38.5,97.4,30.3,89.2C22.1,81.1,18,71.3,18,59.7C18,48.3,22.1,38.5,30.3,30.3C38.5,22.1,48.3,18.1,59.7,18.1C71.2,18.1,81,22.1,89.2,30.3C97.4,38.5,101.4,48.3,101.4,59.7z"/>
        <path transform="matrix(0,1,-1,0,364.3,444.6)" fill="#136606" id="shape2" d="M119.5,59.7C119.5,76.2,113.6,90.3,101.9,102C90.2,113.6,76.1,119.5,59.7,119.5C43.3,119.5,29.3,113.6,17.6,102C5.9,90.3,0,76.2,0,59.7C0,43.4,5.9,29.3,17.6,17.6C29.3,5.9,43.3,0,59.7,0C76.1,0,90.2,5.9,101.9,17.6C113.6,29.3,119.5,43.4,119.5,59.7zM113.6,59.7C113.6,44.9,108.4,32.2,97.9,21.6C87.3,11.1,74.6,5.9,59.7,5.9C44.8,5.9,32.1,11.1,21.6,21.6C11.1,32.2,5.9,44.9,5.9,59.7C5.9,74.7,11.1,87.4,21.6,97.9C32.1,108.4,44.8,113.6,59.7,113.6C74.6,113.6,87.3,108.4,97.9,97.9C108.4,87.4,113.6,74.7,113.6,59.7zM101.4,59.7C101.4,71.3,97.4,81.1,89.2,89.2C81,97.4,71.2,101.4,59.7,101.4C48.3,101.4,38.5,97.4,30.3,89.2C22.1,81.1,18,71.3,18,59.7C18,48.3,22.1,38.5,30.3,30.3C38.5,22.1,48.3,18.1,59.7,18.1C71.2,18.1,81,22.1,89.2,30.3C97.4,38.5,101.4,48.3,101.4,59.7z"/>
        <path transform="matrix(0,1,-1,0,364.3,610.2)" fill="#136606" id="shape3" d="M119.5,59.7C119.5,76.2,113.6,90.3,101.9,102C90.2,113.6,76.1,119.5,59.7,119.5C43.3,119.5,29.3,113.6,17.6,102C5.9,90.3,0,76.2,0,59.7C0,43.4,5.9,29.3,17.6,17.6C29.3,5.9,43.3,0,59.7,0C76.1,0,90.2,5.9,101.9,17.6C113.6,29.3,119.5,43.4,119.5,59.7zM113.6,59.7C113.6,44.9,108.4,32.2,97.9,21.6C87.3,11.1,74.6,5.9,59.7,5.9C44.8,5.9,32.1,11.1,21.6,21.6C11.1,32.2,5.9,44.9,5.9,59.7C5.9,74.7,11.1,87.4,21.6,97.9C32.1,108.4,44.8,113.6,59.7,113.6C74.6,113.6,87.3,108.4,97.9,97.9C108.4,87.4,113.6,74.7,113.6,59.7zM101.4,59.7C101.4,71.3,97.4,81.1,89.2,89.2C81,97.4,71.2,101.4,59.7,101.4C48.3,101.4,38.5,97.4,30.3,89.2C22.1,81.1,18,71.3,18,59.7C18,48.3,22.1,38.5,30.3,30.3C38.5,22.1,48.3,18.1,59.7,18.1C71.2,18.1,81,22.1,89.2,30.3C97.4,38.5,101.4,48.3,101.4,59.7z"/>
        <path transform="matrix(0,1,-1,0,364.3,932.6)" fill="#136606" id="shape4" d="M119.5,59.7C119.5,76.2,113.6,90.3,101.9,102C90.2,113.6,76.1,119.5,59.7,119.5C43.3,119.5,29.3,113.6,17.6,102C5.9,90.3,0,76.2,0,59.7C0,43.4,5.9,29.3,17.6,17.6C29.3,5.9,43.3,0,59.7,0C76.1,0,90.2,5.9,101.9,17.6C113.6,29.3,119.5,43.4,119.5,59.7zM113.6,59.7C113.6,44.9,108.4,32.2,97.9,21.6C87.3,11.1,74.6,5.9,59.7,5.9C44.8,5.9,32.1,11.1,21.6,21.6C11.1,32.2,5.9,44.9,5.9,59.7C5.9,74.7,11.1,87.4,21.6,97.9C32.1,108.4,44.8,113.6,59.7,113.6C74.6,113.6,87.3,108.4,97.9,97.9C108.4,87.4,113.6,74.7,113.6,59.7zM101.4,59.7C101.4,71.3,97.4,81.1,89.2,89.2C81,97.4,71.2,101.4,59.7,101.4C48.3,101.4,38.5,97.4,30.3,89.2C22.1,81.1,18,71.3,18,59.7C18,48.3,22.1,38.5,30.3,30.3C38.5,22.1,48.3,18.1,59.7,18.1C71.2,18.1,81,22.1,89.2,30.3C97.4,38.5,101.4,48.3,101.4,59.7z"/>
        <path transform="matrix(0,1,-1,0,364.3,761.9)" fill="#136606" id="shape5" d="M119.5,59.7C119.5,76.2,113.6,90.3,101.9,102C90.2,113.6,76.1,119.5,59.7,119.5C43.3,119.5,29.3,113.6,17.6,102C5.9,90.3,0,76.2,0,59.7C0,43.4,5.9,29.3,17.6,17.6C29.3,5.9,43.3,0,59.7,0C76.1,0,90.2,5.9,101.9,17.6C113.6,29.3,119.5,43.4,119.5,59.7zM113.6,59.7C113.6,44.9,108.4,32.2,97.9,21.6C87.3,11.1,74.6,5.9,59.7,5.9C44.8,5.9,32.1,11.1,21.6,21.6C11.1,32.2,5.9,44.9,5.9,59.7C5.9,74.7,11.1,87.4,21.6,97.9C32.1,108.4,44.8,113.6,59.7,113.6C74.6,113.6,87.3,108.4,97.9,97.9C108.4,87.4,113.6,74.7,113.6,59.7zM101.4,59.7C101.4,71.3,97.4,81.1,89.2,89.2C81,97.4,71.2,101.4,59.7,101.4C48.3,101.4,38.5,97.4,30.3,89.2C22.1,81.1,18,71.3,18,59.7C18,48.3,22.1,38.5,30.3,30.3C38.5,22.1,48.3,18.1,59.7,18.1C71.2,18.1,81,22.1,89.2,30.3C97.4,38.5,101.4,48.3,101.4,59.7z"/>
        <path transform="matrix(0,1,-1,0,546.3,146)" fill="#136606" stroke="#3498db" id="shape6" d="M0,58.6C0,42.4,5.7,28.6,17.2,17.2C28.6,5.7,42.4,0,58.6,0C74.8,0,88.7,5.7,100.1,17.2C111.5,28.6,117.3,42.4,117.3,58.6C117.3,74.8,111.5,88.7,100.1,100.1C88.7,111.5,74.8,117.3,58.6,117.3C42.4,117.3,28.6,111.5,17.2,100.1C5.7,88.7,0,74.8,0,58.6zM11.7,58.6C11.7,71.5,16.3,82.6,25.5,91.7C34.6,100.9,45.7,105.4,58.6,105.4C71.6,105.4,82.6,100.9,91.8,91.7C100.9,82.6,105.5,71.5,105.5,58.6C105.5,45.7,100.9,34.7,91.8,25.5C82.6,16.4,71.6,11.8,58.6,11.8C45.7,11.8,34.6,16.4,25.5,25.5C16.3,34.7,11.7,45.7,11.7,58.6z"/>
        <g transform="matrix(0,1,-1,0,362.1,44.7)" id="shape7">
            <path fill="#000000" filter="url(#filter1)" fill-opacity="0.13" d="M0,58.6C0,42.4,5.7,28.6,17.2,17.2C28.6,5.7,42.4,0,58.6,0C74.8,0,88.7,5.7,100.1,17.2C111.5,28.6,117.3,42.4,117.3,58.6C117.3,74.8,111.5,88.7,100.1,100.1C88.7,111.5,74.8,117.3,58.6,117.3C42.4,117.3,28.6,111.5,17.2,100.1C5.7,88.7,0,74.8,0,58.6zM11.7,58.6C11.7,71.5,16.3,82.6,25.5,91.7C34.6,100.9,45.7,105.4,58.6,105.4C71.6,105.4,82.6,100.9,91.8,91.7C100.9,82.6,105.5,71.5,105.5,58.6C105.5,45.7,100.9,34.7,91.8,25.5C82.6,16.4,71.6,11.8,58.6,11.8C45.7,11.8,34.6,16.4,25.5,25.5C16.3,34.7,11.7,45.7,11.7,58.6z"/>
            <path fill="#136606" d="M0,58.6C0,42.4,5.7,28.6,17.2,17.2C28.6,5.7,42.4,0,58.6,0C74.8,0,88.7,5.7,100.1,17.2C111.5,28.6,117.3,42.4,117.3,58.6C117.3,74.8,111.5,88.7,100.1,100.1C88.7,111.5,74.8,117.3,58.6,117.3C42.4,117.3,28.6,111.5,17.2,100.1C5.7,88.7,0,74.8,0,58.6zM11.7,58.6C11.7,71.5,16.3,82.6,25.5,91.7C34.6,100.9,45.7,105.4,58.6,105.4C71.6,105.4,82.6,100.9,91.8,91.7C100.9,82.6,105.5,71.5,105.5,58.6C105.5,45.7,100.9,34.7,91.8,25.5C82.6,16.4,71.6,11.8,58.6,11.8C45.7,11.8,34.6,16.4,25.5,25.5C16.3,34.7,11.7,45.7,11.7,58.6z"/>
        </g>
        <path transform="matrix(0,1,-1,0,190.1,156)" fill="#136606" stroke="#3498db" id="shape8" d="M0,58.6C0,42.4,5.7,28.6,17.2,17.2C28.6,5.7,42.4,0,58.6,0C74.8,0,88.7,5.7,100.1,17.2C111.5,28.6,117.3,42.4,117.3,58.6C117.3,74.8,111.5,88.7,100.1,100.1C88.7,111.5,74.8,117.3,58.6,117.3C42.4,117.3,28.6,111.5,17.2,100.1C5.7,88.7,0,74.8,0,58.6zM11.7,58.6C11.7,71.5,16.3,82.6,25.5,91.7C34.6,100.9,45.7,105.4,58.6,105.4C71.6,105.4,82.6,100.9,91.8,91.7C100.9,82.6,105.5,71.5,105.5,58.6C105.5,45.7,100.9,34.7,91.8,25.5C82.6,16.4,71.6,11.8,58.6,11.8C45.7,11.8,34.6,16.4,25.5,25.5C16.3,34.7,11.7,45.7,11.7,58.6z"/>
        <path transform="translate(108.79,183.91)" fill="#ffaa00" id="shape9" d="M3.1,7.4L42.3,7.4C44,7.4,45.4,8.8,45.4,10.5L45.4,58.4C45.4,60.1,44,61.5,42.3,61.5L3.1,61.5C1.4,61.5,0,60.1,0,58.4L0,10.5C0,8.8,1.4,7.4,3.1,7.4zM3.3,58.3L42.1,58.3L42.1,10.6L3.3,10.6L3.3,58.3zM15.2,5L18.2,5C18.1,4.8,18.1,4.7,18.1,4.5C18.1,2,20.2,0,22.7,0C25.2,0,27.2,2,27.2,4.5C27.2,4.7,27.2,4.8,27.2,5L30.2,5C31,5,31.7,5.6,31.7,6.3L31.7,12.1C31.7,12.9,31,13.5,30.2,13.5L15.2,13.5C14.3,13.5,13.7,12.9,13.7,12.1L13.7,6.3C13.7,5.6,14.3,5,15.2,5zM22.7,6.6C23.9,6.6,24.8,5.7,24.8,4.5C24.8,3.4,23.9,2.4,22.7,2.4C21.5,2.4,20.6,3.4,20.6,4.5C20.6,5.7,21.5,6.6,22.7,6.6zM8.3,23.5L37.5,23.5L37.5,25.7L8.3,25.7L8.3,23.5zM8.3,29.2L37.5,29.2L37.5,31.4L8.3,31.4L8.3,29.2zM8.3,34.7L37.5,34.7L37.5,37L8.3,37L8.3,34.7zM7.9,41.3L37,41.3L37,43.5L7.9,43.5L7.9,41.3zM7.9,46.3L37,46.3L37,48.5L7.9,48.5L7.9,46.3zM30.3,51.8L37,51.8L37,54.6L30.3,54.6L30.3,51.8zM15.6,17.8L30.3,17.8L30.3,20L15.6,20L15.6,17.8z"/>
        <g transform="translate(285,74.28)">
            <path transform="translate(7.72,25.13)" fill="#ffaa00" id="shape10" d="M2.6,7.8C2.6,8.5,2.1,9.1,1.3,9.1C.5,9.1,0,8.5,0,7.8L0,1.3C0,.6,.5,0,1.3,0C2.1,0,2.6,.6,2.6,1.3L2.6,7.8z"/>
            <path transform="translate(25.66,25.13)" fill="#ffaa00" id="shape11" d="M2.6,7.8C2.6,8.5,2.1,9.1,1.3,9.1C.5,9.1,0,8.5,0,7.8L0,1.3C0,.6,.5,0,1.3,0C2.1,0,2.6,.6,2.6,1.3L2.6,7.8z"/>
            <path transform="translate(11.59,25.14)" fill="#ffaa00" id="shape12" d="M0,0L0,9.6C0,10.8,.8,11.6,1.8,11.6L2.6,14.9C2.6,15.6,3.1,16.2,3.8,16.2C4.5,16.2,5,15.6,5,14.9L5,11.6L7.6,11.6L7.6,14.9C7.6,15.6,8.1,16.2,8.8,16.2C9.4,16.2,9.9,15.6,9.9,14.9L9.9,11.6L11.1,11.6C12.2,11.6,12.6,10.7,12.6,9.6L12.6,0L0,0z"/>
            <path transform="translate(11.13,16.02)" fill="#ffaa00" id="shape13" d="M10.7,2.4L11.8,.6C11.9,.4,11.8,.2,11.7,0C11.5,0,11.3,0,11.3,.2L10.2,2.1C9.3,1.6,8.1,1.3,6.9,1.3C5.8,1.3,4.6,1.6,3.7,2.1L2.6,.2C2.5,0,2.4,0,2.2,0C2.1,.2,2,.3,2.1,.6L3.1,2.4C1.3,3.5,0,5.3,0,7.5C0,7.6,0,7.8,0,7.8L13.9,7.8C13.9,7.8,13.9,7.6,13.9,7.5C13.9,5.3,12.7,3.4,10.7,2.4zM3.7,5.2C3.3,5.2,3,4.9,3,4.6C3,4.2,3.3,3.9,3.7,3.9C4.1,3.9,4.3,4.2,4.3,4.6C4.3,4.9,4.1,5.2,3.7,5.2zM10.1,5.2C9.7,5.2,9.4,4.9,9.4,4.6C9.4,4.2,9.7,3.9,10.1,3.9C10.5,3.9,10.7,4.2,10.7,4.6C10.7,4.9,10.5,5.2,10.1,5.2z"/>
            <path fill="#ffaa00" id="shape14" d="M34.3,0L1.7,0C.8,0,0,.6,0,1.5L0,56.2C0,57.1,.8,58,1.7,58L34.3,58C35.2,58,36,57.1,36,56.2L36,1.7C35.9,.8,35.1,0,34.3,0zM14.4,2.3L22.1,2.3L22.1,3.6L14.4,3.6L14.4,2.3zM18.1,56.8C16.6,56.8,15.4,55.7,15.4,54.3C15.4,52.9,16.6,51.7,18.1,51.7C19.5,51.7,20.7,52.9,20.7,54.3C20.7,55.7,19.5,56.8,18.1,56.8zM32.1,50.5L3.8,50.5L3.8,6.4L32.1,6.4L32.1,50.5z"/>
        </g>
        <path transform="matrix(0,1,-1,0,506.6,185.7)" fill="#ffaa00" id="shape15" d="M35.3,27.6C33.8,26,29.5,22.9,26.7,22.9C26,22.9,25.4,23.1,25,23.4C23.6,24.3,22.5,25,22,25C21.7,25,21.4,24.7,20.7,24.1C18.7,22.3,18.3,21.9,17.6,21.1C17.2,20.7,17.1,20.6,17,20.5C16.4,19.8,15.9,19.3,14.3,17.3C13.4,16.3,12.9,15.7,12.9,15.3C12.8,14.8,13.2,14.1,14.1,12.8C15.2,11.3,15.3,9.3,14.2,7.1C13.4,5.3,12.1,3.6,10.9,2.1C9.8,.6,8.6,0,7.3,0C5.9,0,4.6,.8,4,1.3C4,1.3,3.9,1.3,3.9,1.4C2.4,2.3,1.4,3.6,1,4.9C.4,6.9,0,9.5,2.8,14.9C5.3,19.6,7.5,22.7,11,26.5C14.3,30,15.8,31.2,19,33.6C22.7,36.4,26.2,38,28.7,38C31,38,32.8,38,35.3,34.8C38,31.4,36.9,29.3,35.3,27.6zM34.1,33.6C32,36.2,30.8,36.2,28.7,36.2C26.6,36.2,23.3,34.7,20,32.2C16.8,29.8,15.4,28.7,12.1,25.2C8.7,21.6,6.6,18.5,4.2,14C1.8,9.3,2,7.2,2.5,5.5C2.8,4.6,3.6,3.6,4.7,2.9C4.8,2.8,4.8,2.8,4.9,2.8C5.4,2.4,6.3,1.8,7.3,1.8C8.2,1.8,8.9,2.2,9.6,3.1C12.3,6.6,14.4,9.6,12.8,11.8C11.7,13.3,11.2,14.4,11.3,15.5C11.3,16.5,12,17.3,13,18.5C14.8,20.5,15.2,21.1,15.9,21.8C16,21.9,16.1,22,16.3,22.1C17.2,23.2,17.6,23.6,19.6,25.4C20.5,26.3,21.1,26.8,22,26.8C22.9,26.8,23.9,26.2,25.9,24.9C26.1,24.8,26.3,24.7,26.7,24.7C28.9,24.7,32.8,27.4,34.1,28.9C35.4,30.2,36,31.2,34.1,33.6z"/>
        <g transform="translate(281.44,295.88)">
            <path transform="translate(0,41.74)" fill="#ffffff" id="shape16" d="M.1,11.7C-0.6,9.3,4,.5,15,.4C20.8,.3,26.3,-0.5,32.1,.5C37.5,1.5,46.1,5.9,48.8,12.8C48.8,12.8,50.8,17.5,37.9,18C22.4,18.7,.7,14,.1,11.7z"/>
            <path transform="translate(14.06,33.07)" fill="#ffffff" id="shape17" d="M1.1,4.9C1.1,4.9,1.9,6.8,1.7,8.7C1.6,10.3,1.6,11.9,.2,13C.2,13,-1.2,16.8,3.5,16.9C8.3,17.1,15.7,11.3,15.7,11.3C15.7,11.3,13.3,7.9,14.1,0L1.1,4.9z"/>
            <path transform="translate(15.98,39.76)" fill="#ffffff" id="shape18" d="M12.9,0C12.9,0,15.6,-0.3,16.2,1.3C16.8,2.8,17.5,9.3,17.5,9.3C17.5,9.3,13,5.5,7.3,9C2.2,12,0,10.2,0,10.2C0,10.2,2.1,9.8,7.6,5.6C9.2,4.3,12.9,0,12.9,0z"/>
            <path transform="translate(6.8,41.92)" fill="#ffffff" id="shape19" d="M9,0C9,0,2.3,0,0,5.4C0,5.4,2.7,4.9,5.2,6.3C8.6,8.2,9.4,8.1,9.4,8.1C9.4,8.1,8.5,6.6,8.7,3.8C8.8,2,9,0,9,0z"/>
            <g transform="translate(3.79,27.44)">
                <path transform="translate(-0,0)" fill="#ffffff" id="shape20" d="M2.1,7.9C1.5,6.4,.8,4.6,1.3,3C1.7,2.1,2.5,1.4,3.4,1.1L3.2,0C1.9,.4,.8,1.3,.3,2.7C-0.5,4.6,.3,6.7,2.1,7.9z"/>
                <path transform="translate(1.77,6.79)" fill="#ffffff" id="shape21" d="M2.4,.5C3.2,1.1,3.5,2.1,3,2.6C2.6,3.2,1.6,3.1,.8,2.5C.1,1.9,-0.2,.9,.2,.4C.6,-0.2,1.6,-0.1,2.4,.5z"/>
            </g>
            <path transform="translate(4.49,11.24)" fill="#ffffff" id="shape22" d="M3.6,2.5C3.6,2.5,2.1,7.5,2,8.2C1.8,8.9,1.6,10.5,1.7,10.9C1.7,11.3,-0.2,9.1,0,6.1C.2,3.1,.7,0,.7,0L3.6,2.5z"/>
            <path transform="translate(6.22,8.29)" fill="#ffffff" id="shape23" d="M1.7,5.4C1.7,5.4,.2,8.8,0,10.5C-0.1,12.2,.2,15.3,0,16.7C-0.1,18.1,3,30.9,7,32.1C10.9,33.2,12.1,32.4,13.8,31.5C16.1,30.1,23,24.9,24.2,22.3C27.5,15.2,24.4,9.5,24.6,8.7C24.9,7.8,19.1,0,19.1,0L1.7,5.4z"/>
            <path transform="translate(0.03,0)" fill="#ffffff" id="shape24" d="M5.5,3.6C5.5,3.6,6.5,5,6.9,5.2C7.2,5.4,3.5,5.9,3,4.5C2.4,3.1,2.5,6.7,4.3,7.3C6.1,7.9,.9,7.2,.1,6.1C-0.6,5,2.2,14.7,12.4,14.6C22.7,14.4,26.5,11.9,26.5,11.9C26.5,11.9,26.7,21.7,29.7,22.4C36.4,24,27.7,33.8,27.7,33.8C28.4,35.8,35.6,33.5,37.3,24.2C37.9,20.5,41.4,9.2,33.8,4.2C33.8,4.2,29.6,-2.3,18.5,.9C9.6,3.5,8.2,4.3,5.5,3.6z"/>
            <g transform="translate(17.37,0.89)">
                <path transform="translate(10.66,18.97)" fill="#ffffff" id="shape25" d="M9.9,5.1C9.9,8,7.7,10.3,4.9,10.3C2.2,10.3,0,8,0,5.1C0,2.3,2.2,0,4.9,0C7.7,0,9.9,2.3,9.9,5.1z"/>
                <path transform="translate(-0,0)" fill="#ffffff" id="shape26" d="M15.2,17C15.2,19.2,14.8,21.3,14.1,23.3L16.1,23.3C16.9,21.2,17.3,19,17.3,16.7C17.3,7.5,10.8,0,2.8,0C1.8,0,.9,.1,0,.3C.2,.3,.5,.3,.7,.3C8.7,.3,15.2,7.8,15.2,17z"/>
            </g>
        </g>
        <path transform="matrix(0,1,-1,0,315,166.7)" fill="#ffaf00" stroke="#ffaf00" id="shape27" d="M0,5.3L61.5,5.3L61.5,0L96,19L61.5,38L61.5,32.7L0,32.7L0,5.3z"/>
        <path transform="matrix(0.71,0.71,-0.71,0.71,198.1,234.6)" fill="#ffaf00" stroke="#ffaf00" id="shape28" d="M0,5.3L54.9,5.3L54.9,0L85.7,19L54.9,38L54.9,32.7L0,32.7L0,5.3z"/>
        <path transform="matrix(-0.87,0.5,-0.5,-0.87,448.6,266.7)" fill="#ffaf00" stroke="#ffaf00" id="shape29" d="M0,5.3L61.5,5.3L61.5,0L96,19L61.5,38L61.5,32.7L0,32.7L0,5.3z"/>
        <path transform="matrix(0,1,-1,0,322,390.3)" fill="#ffaf00" stroke="#ffaf00" id="shape30" d="M0,5.3L30.7,5.3L30.7,0L48,19L30.7,38L30.7,32.7L0,32.7L0,5.3z"/>
        <path transform="matrix(0,1,-1,0,325.9,883.3)" fill="#ffaf00" stroke="#ffaf00" id="shape31" d="M0,5.3L30.7,5.3L30.7,0L48,19L30.7,38L30.7,32.7L0,32.7L0,5.3z"/>
        <path transform="matrix(0,1,-1,0,319.1,731.1)" fill="#ffaf00" stroke="#ffaf00" id="shape32" d="M0,4.1L20.7,4.1L20.7,0L32.3,14.5L20.7,29L20.7,24.9L0,24.9L0,4.1z"/>
        <path transform="matrix(0,1,-1,0,323.6,565.3)" fill="#ffaf00" stroke="#ffaf00" id="shape33" d="M0,5.3L30.7,5.3L30.7,0L48,19L30.7,38L30.7,32.7L0,32.7L0,5.3z"/>
        <path stroke-width="0.333333" transform="translate(270.72,637.63)" fill="#ffffff" stroke="#3498db" id="shape34" d="M19,26.1L14.5,30.7L29,45.2L61.3,12.9L56.8,8.4L29,36L19,26.1zM58.1,32.3C58.1,46.5,46.5,58.1,32.3,58.1C18.1,58.1,6.5,46.5,6.5,32.3C6.5,18.1,18.1,6.5,32.3,6.5C34.7,6.5,37.1,6.8,39.4,7.4L44.4,2.4C40.7,.8,36.6,0,32.3,0C14.5,0,0,14.5,0,32.3C0,50,14.5,64.6,32.3,64.6C50,64.6,64.6,50,64.6,32.3L58.1,32.3z"/>
        <g transform="translate(105.67,471.2)" id="shape35">
            <text class="st1">
                <tspan x="43.3" y="27.1">Choose </tspan>
                <tspan x="45.3" y="52.1">service</tspan>
            </text>
        </g>
        <g transform="translate(353.5,637.63)" id="shape36">
            <text class="st1">
                <tspan x="52" y="22">Order </tspan>
                <tspan x="30" y="47">confirmed</tspan>
            </text>
        </g>
        <g transform="translate(95,793.62)" id="shape37">
            <text class="st1">
                <tspan x="12" y="22">Operator at </tspan>
                <tspan x="6" y="47">your service</tspan>
            </text>
        </g>
        <g transform="translate(365,952.33)" id="shape38">
            <text class="st1">
                <tspan x="28" y="25">Happy </tspan>
                <tspan x="26" y="50">farmer</tspan>
            </text>
        </g>
        <g transform="translate(62,67.95)" id="shape39">
            <text class="st1">
                <tspan x="26.1" y="23">Order on app</tspan>
                <tspan x="21.1" y="48">Coming soon!</tspan>
            </text>
        </g>
        <g transform="translate(360.76,102.5)" id="shape40">
            <text class="st1">
                <tspan x="100" y="10.5">Call us:</tspan>
                <tspan x="47" y="35.5"> +255 754 044 385</tspan>
            </text>
        </g>
        <path stroke-width="0.333333" transform="matrix(0,1,-1,0,330,477.3)" fill="#ffffff" stroke="#3498db" id="shape41" d="M51.7,24.7L40.5,24.7C39.2,24.7,38.2,25.7,38.2,27C38.2,28.2,39.2,29.2,40.5,29.2L51.7,29.2C52.9,29.2,54,28.2,54,27C54,25.7,52.9,24.7,51.7,24.7zM15.7,27C15.7,25.7,14.7,24.7,13.5,24.7L2.2,24.7C1,24.7,0,25.7,0,27C0,28.2,1,29.2,2.2,29.2L13.5,29.2C14.7,29.2,15.7,28.2,15.7,27zM27,38.2C25.7,38.2,24.7,39.2,24.7,40.5L24.7,51.7C24.7,52.9,25.7,54,27,54C28.2,54,29.2,52.9,29.2,51.7L29.2,40.5C29.2,39.2,28.2,38.2,27,38.2zM27,0C25.7,0,24.7,1,24.7,2.2L24.7,13.5C24.7,14.7,25.7,15.7,27,15.7C28.2,15.7,29.2,14.7,29.2,13.5L29.2,2.2C29.2,1,28.2,0,27,0zM36.7,21.4C37.3,22.4,38.7,22.8,39.8,22.2L49.5,16.6C50.6,15.9,51,14.6,50.4,13.5C49.7,12.4,48.4,12,47.3,12.7L37.5,18.3C36.5,18.9,36.1,20.3,36.7,21.4zM17.2,32.6C16.6,31.5,15.2,31.2,14.2,31.8L4.4,37.4C3.3,38,3,39.4,3.6,40.5C4.2,41.6,5.6,41.9,6.7,41.3L16.4,35.7C17.5,35,17.9,33.7,17.2,32.6zM35.7,37.5C35.1,36.5,33.7,36.1,32.6,36.7C31.5,37.3,31.2,38.7,31.8,39.8L37.4,49.5C38,50.6,39.4,51,40.5,50.3C41.6,49.7,41.9,48.4,41.3,47.3L35.7,37.5zM16.6,4.4C15.9,3.4,14.6,3,13.5,3.6C12.4,4.2,12,5.6,12.7,6.7L18.3,16.4C18.9,17.5,20.3,17.9,21.4,17.3C22.4,16.6,22.8,15.3,22.2,14.2L16.6,4.4zM32.6,17.2C33.7,17.9,35,17.5,35.7,16.4L41.3,6.7C41.9,5.6,41.6,4.2,40.5,3.6C39.4,3,38,3.3,37.4,4.4L31.8,14.2C31.2,15.2,31.5,16.6,32.6,17.2zM21.4,36.7C20.3,36.1,18.9,36.5,18.3,37.5L12.7,47.3C12,48.4,12.4,49.7,13.5,50.4C14.6,51,15.9,50.6,16.6,49.5L22.2,39.8C22.8,38.7,22.4,37.3,21.4,36.7zM49.5,37.4L39.8,31.8C38.7,31.2,37.3,31.5,36.7,32.6C36.1,33.7,36.5,35,37.5,35.7L47.3,41.3C48.4,41.9,49.7,41.6,50.3,40.5C51,39.4,50.6,38,49.5,37.4zM4.4,16.6L14.2,22.2C15.3,22.8,16.6,22.4,17.3,21.4C17.9,20.3,17.5,18.9,16.4,18.3L6.7,12.7C5.6,12,4.2,12.4,3.6,13.5C3,14.6,3.4,15.9,4.4,16.6z"/>
        <path transform="translate(287.05,977.07)" fill="#ffffff" id="shape42" d="M10.8,32L0,32L0,11.5L10.8,11.5L10.8,32zM5.4,30C6.2,30,6.9,29.3,6.9,28.5C6.9,27.6,6.2,27,5.4,27C4.6,27,3.9,27.6,3.9,28.5C3.9,29.3,4.6,30,5.4,30zM35.7,16.7C37,16.3,38,15.2,38,13.9C38,12.3,36.5,10.9,34.7,10.9L24.8,10.9C25,8.8,25.7,6.4,24.9,3.5C24.1,1,21.1,-0.8,19.8,.3C19.3,.7,19.5,1.6,19.5,3.2C19.5,6.9,17.8,10.6,15.6,12.5C14.7,13.3,13.2,13.6,11.7,13.7L11.7,30L32.7,30C33.1,29.9,34.5,29.5,34.9,28.2C35.2,26.8,34.4,26.1,34.1,25.9C35.3,25.5,36.1,24.5,36.1,23.3C36.1,22.7,35.8,22.1,35.5,21.7C36.6,21.3,37.4,20.3,37.4,19.1C37.4,18.1,36.7,17.1,35.7,16.7z"/>
        <g transform="translate(278.31,798.62)">
            <path stroke-width="0.333333" transform="translate(39.16,7.79)" fill="#3e3938" stroke="#3e3938" id="shape43" d="M.1,1.6C-0.1,2.7,.1,11.1,.1,11.1L1.2,11.1C1.2,11.1,.7,2.8,1.1,1.9C1.6,1,2.4,.8,2.4,.8C1.7,0,.3,.4,.1,1.6z"/>
            <path stroke-width="0.333333" transform="translate(4.42,15.1)" fill="#f9922d" stroke="#f9922d" id="shape44" d="M34.9,19.4C34.9,20.2,34.5,20.8,34.1,20.8C34.1,20.8,10.1,22.3,8.2,19.9C6.3,17.5,6.6,17.6,3.6,17.5C1,17.4,.6,16.4,.1,14C-0.3,11.5,.7,5.9,.7,5.9C.7,5.1,1.9,3.3,4.2,3.1C5.6,2.9,17.9,3.6,26.3,4L26.3,1.5C26.3,1.1,25.5,1.6,27.3,.5C29.1,-0.6,40.4,.5,40.4,.5C40.4,.5,43.9,.4,45,2.5C46.1,4.6,51,10.8,50.8,13.8C50.3,16.8,47.8,18.7,47.2,19.4L34.9,19.4z"/>
            <path stroke-width="0.333333" transform="translate(22.93,3.93)" fill="#f9ca31" stroke="#f9ca31" id="shape45" d="M2.1,0L1.1,0C.5,0,0,.3,0,.8C0,2.1,.5,2.4,1.1,2.4L2.1,2.4C2.7,2.4,3.2,2.1,3.2,1.7C3.2,.3,2.7,0,2.1,0z"/>
            <path stroke-width="0.333333" transform="translate(30.7,22.63)" fill="#3e3938" stroke="#3e3938" id="shape46" d="M23.3,11.6C23.3,5.2,18.1,0,11.6,0C5.2,0,0,5.2,0,11.6C0,18,5.2,23.2,11.6,23.2C18.1,23.2,23.3,18,23.3,11.6z"/>
            <path stroke-width="0.333333" transform="translate(32.73,24.66)" fill="#b4b5b5" stroke="#b4b5b5" id="shape47" d="M19.2,9.6C19.2,4.3,14.9,0,9.6,0C4.3,0,0,4.3,0,9.6C0,14.9,4.3,19.2,9.6,19.2C14.9,19.2,19.2,14.9,19.2,9.6z"/>
            <path stroke-width="0.333333" transform="translate(39.03,30.95)" fill="#717070" stroke="#717070" id="shape48" d="M6.6,3.3C6.6,1.5,5.1,0,3.3,0C1.5,0,0,1.5,0,3.3C0,5.1,1.5,6.6,3.3,6.6C5.1,6.6,6.6,5.1,6.6,3.3z"/>
            <path stroke-width="0.333333" transform="translate(15.76,5.82)" fill="#f9922d" stroke="#f9922d" id="shape49" d="M15.2,.2L2.8,0C2.3,0,-0.2,-0.1,.2,2.3L0,18.4C0,18.8,.4,19.1,.9,19.1L16.6,19.1C17.1,19.1,17.5,18.8,17.5,18.4L17.6,2.1C17.4,.2,15.7,.2,15.2,.2z"/>
            <path stroke-width="0.333333" transform="translate(0,27.11)" fill="#3e3938" stroke="#3e3938" id="shape50" d="M18.9,9.4C18.9,4.2,14.7,0,9.5,0C4.2,0,0,4.2,0,9.4C0,14.7,4.2,18.9,9.5,18.9C14.7,18.9,18.9,14.7,18.9,9.4z"/>
            <path stroke-width="0.333333" transform="translate(1.89,28.99)" fill="#b4b5b5" stroke="#b4b5b5" id="shape51" d="M15.1,7.6C15.1,3.4,11.8,0,7.6,0C3.4,0,0,3.4,0,7.6C0,11.7,3.4,15.1,7.6,15.1C11.8,15.1,15.1,11.7,15.1,7.6z"/>
            <path stroke-width="0.333333" transform="translate(6.12,33.22)" fill="#717070" stroke="#717070" id="shape52" d="M6.7,3.3C6.7,1.5,5.2,0,3.3,0C1.5,0,0,1.5,0,3.3C0,5.2,1.5,6.7,3.3,6.7C5.2,6.7,6.7,5.2,6.7,3.3z"/>
            <path stroke-width="0.333333" transform="translate(7.69,26.22)" fill="#f9922d" stroke="#f9922d" id="shape53" d="M3,0L.6,0C.3,0,0,.2,0,.5L0,11.6C0,11.9,.3,12.1,.6,12.1L3,12.1C3.3,12.1,3.5,11.9,3.5,11.6L3.5,.5C3.5,.2,3.3,0,3,0z"/>
            <path stroke-width="0.333333" transform="translate(8.32,35.42)" fill="#717070" stroke="#717070" id="shape54" d="M2.1,1C2.1,.5,1.6,0,1,0C.5,0,0,.5,0,1C0,1.6,.5,2.1,1,2.1C1.6,2.1,2.1,1.6,2.1,1z"/>
            <path stroke-width="0.333333" transform="translate(10.44,20.24)" fill="#bf793e" stroke="#bf793e" id="shape55" d="M4,0L0,0L0,2L4,2L4,0z"/>
            <g transform="matrix(-1,0,0,1,30.1,8.4)">
                <path stroke-width="0.333333" fill="#89c3eb" stroke="#89c3eb" id="shape56" d="M.6,0L3.3,0C3.6,0,3.9,.3,3.9,.7L3.9,9.1C3.9,9.5,3.6,9.9,3.3,9.9L.6,9.9C.3,9.9,0,9.5,0,9.1L0,.7C0,.3,.3,0,.6,0z"/>
                <path stroke-width="0.333333" transform="translate(5.85,0)" fill="#89c3eb" stroke="#89c3eb" id="shape57" d="M.8,0L4.8,0C5.2,0,5.6,.3,5.6,.7L5.6,9.1C5.6,9.5,5.2,9.9,4.8,9.9L.8,9.9C.4,9.9,0,9.5,0,9.1L0,.7C0,.3,.4,0,.8,0z"/>
            </g>
            <path stroke-width="0.333333" transform="translate(41.04,0.09)" fill="#dcdcdd" stroke="#dcdcdd" id="shape58" d="M1.7,7.9C2.1,7.6,1.9,6.7,2.5,6.5C3.1,6.3,3.5,6.4,4,5.9C4.4,5.5,4.4,4.5,4.4,4.5C4.4,4.5,5.1,5.2,6,4.8C6.9,4.5,6.4,3.8,7.9,4.1C9.4,4.3,10.3,4.4,10.9,3.6C11.5,2.8,11.4,1.8,11,1.1C10.6,.5,9.9,-0.2,8.3,-0.1C6.8,.1,6.2,1.6,6.2,1.6C6.2,1.6,3.9,.6,2.7,1.6C1.6,2.6,2.1,4.1,2.1,4.1C2.1,4.1,.6,3.6,.2,4.4C-0.2,5.2,.9,6.1,.9,6.1C.9,6.1,.1,6.6,.4,7.4C.8,8.1,1.3,8.1,1.7,7.9z"/>
            <path stroke-width="0.333333" transform="translate(3.72,20.24)" fill="#f9ca31" stroke="#f9ca31" id="shape59" d="M0,2C0,.9,.9,0,2,0C3.1,0,3.9,.9,3.9,2C3.9,3.1,3.1,3.9,2,3.9C.9,3.9,0,3.1,0,2z"/>
        </g>
    </g>
</svg>
